<?xml version="1.0"?>
<svg xmlns="http://www.w3.org/2000/svg" xmlns:xlink="http://www.w3.org/1999/xlink" version="1.1" id="Capa_1" x="0px" y="0px" viewBox="0 0 480 480" style="enable-background:new 0 0 480 480;" xml:space="preserve" width="512px" height="512px"><g><g>
	<g>
		<path d="M420,416H68c-4.418,0-8,3.582-8,8c0.035,30.913,25.087,55.965,56,56h256c30.913-0.035,55.965-25.087,56-56    C428,419.582,424.418,416,420,416z M372,464H116c-19.002-0.021-35.375-13.387-39.2-32h334.4    C407.375,450.613,391.002,463.979,372,464z" data-original="#000000" class="active-path" data-old_color="#000000" fill="#FFFFFF"/>
	</g>
</g><g>
	<g>
		<path d="M380,160H108c-4.418,0-8,3.582-8,8v48c0,4.418,3.582,8,8,8h8v16H60c-4.418,0-8,3.582-8,8v96c0,4.418,3.582,8,8,8h56v8    c0.026,22.08,17.92,39.974,40,40h176c22.08-0.026,39.974-17.92,40-40V224h8c4.418,0,8-3.582,8-8v-48    C388,163.582,384.418,160,380,160z M116,304h-16v-16h16V304z M116,272H92c-4.418,0-8,3.582-8,8v32c0,4.418,3.582,8,8,8h24v16H68    v-80h48V272z M356,360c0,13.255-10.745,24-24,24H156c-13.255,0-24-10.745-24-24V224h224V360z M372,208H116v-32h256V208z" data-original="#000000" class="active-path" data-old_color="#000000" fill="#FFFFFF"/>
	</g>
</g><g>
	<g>
		<path d="M208,72c15.464,0,28-12.536,28-28V28c0-15.464-12.536-28-28-28h-20c-4.418,0-8,3.582-8,8s3.582,8,8,8h20    c6.627,0,12,5.373,12,12v16c0,6.627-5.373,12-12,12c-15.464,0-28,12.536-28,28v8c0,15.464,12.536,28,28,28c6.627,0,12,5.373,12,12    v4c0,4.418,3.582,8,8,8s8-3.582,8-8v-4c0-15.464-12.536-28-28-28c-6.627,0-12-5.373-12-12v-8C196,77.373,201.373,72,208,72z" data-original="#000000" class="active-path" data-old_color="#000000" fill="#FFFFFF"/>
	</g>
</g><g>
	<g>
		<path d="M280,72c15.464,0,28-12.536,28-28V28c0-15.464-12.536-28-28-28h-20c-4.418,0-8,3.582-8,8s3.582,8,8,8h20    c6.627,0,12,5.373,12,12v16c0,6.627-5.373,12-12,12c-15.464,0-28,12.536-28,28v8c0,15.464,12.536,28,28,28c6.627,0,12,5.373,12,12    v4c0,4.418,3.582,8,8,8s8-3.582,8-8v-4c0-15.464-12.536-28-28-28c-6.627,0-12-5.373-12-12v-8C268,77.373,273.373,72,280,72z" data-original="#000000" class="active-path" data-old_color="#000000" fill="#FFFFFF"/>
	</g>
</g><g>
	<g>
		<path d="M332,328c-4.418,0-8,3.582-8,8v16h-16c-4.418,0-8,3.582-8,8s3.582,8,8,8h24c4.418,0,8-3.582,8-8v-24    C340,331.582,336.418,328,332,328z" data-original="#000000" class="active-path" data-old_color="#000000" fill="#FFFFFF"/>
	</g>
</g></g> </svg>
